<svg xmlns="http://www.w3.org/2000/svg" width="168.299" height="35" viewBox="0 0 168.299 35">
  <path id="icon" d="M142.928,35h-168.3c8.771-2.936,41.455-10.488,47.278-18.1A42.931,42.931,0,0,1,56.082,0c13.487,0,26,7.183,33.879,16.9C96.409,24.845,133.529,31.941,142.928,35ZM57.4,12a1,1,0,0,1,1,1V24.586l2.96-2.96a1,1,0,1,1,1.414,1.414L58.1,27.707a1,1,0,0,1-1.426-.011L52.021,23.04a1,1,0,1,1,1.414-1.414L56.4,24.586V13A1,1,0,0,1,57.4,12Z" transform="translate(142.928 35) rotate(180)" fill="#fff" fill-rule="evenodd"/>
</svg>
