<svg xmlns="http://www.w3.org/2000/svg" xmlns:xlink="http://www.w3.org/1999/xlink" width="803.349" height="735.639" viewBox="0 0 803.349 735.639">
  <defs>
    <clipPath id="clip-path">
      <rect width="803.349" height="735.639" fill="none"/>
    </clipPath>
    <clipPath id="clip-path-2">
      <path id="Caminho_5175" data-name="Caminho 5175" d="M1517.629,1045.752,399.41,1039.788c-42.853-25.638-76.142-67.713-87.083-116.57-16.8-75.034,14.392-155.12-4.951-229.533-6.97-26.826-20.241-51.612-28.237-78.148S269.015,558.644,283.469,535c22.659-37.085,73.744-42.042,110.788-64.762,37.733-23.145,59.757-64.228,86.853-99.226s67.51-67.308,111.133-59.8c65.147,11.211,89.487,99.976,151.98,121.52,29.757,10.259,62.6,3.026,92.357-7.247s59.088-23.638,90.493-25.732,66.471,10.353,79.91,38.814c18.013,38.172,49.005,75.244,89.163,88.245s83.254,14.135,123.925,25.38,81.747,36.693,93.06,77.351c11.6,41.691-11.043,84.132-27.846,124.012s-26,91.682,5.113,121.757c30.419,29.413,79.721,19.856,121.2,28.244,46.122,9.327,85.982,44.926,100.449,89.7A131.628,131.628,0,0,1,1517.629,1045.752Z" transform="translate(-272.865 -310.113)" fill="#9c8eea"/>
    </clipPath>
  </defs>
  <g id="Repetição_de_grade_1" data-name="Repetição de grade 1" clip-path="url(#clip-path)">
    <g id="Grupo_4133" data-name="Grupo 4133" transform="translate(-10149.396 -9050.214)">
      <path id="Caminho_5174" data-name="Caminho 5174" d="M1372.814,1045.752l-988.126-5.963c-37.867-25.638-67.283-67.713-76.952-116.57-14.849-75.034,12.718-155.12-4.375-229.533-6.159-26.826-17.886-51.612-24.952-78.148s-8.946-56.894,3.826-80.538c20.023-37.085,65.165-42.042,97.9-64.762,33.343-23.145,52.805-64.228,76.749-99.226s59.656-67.308,98.2-59.8c57.568,11.211,79.076,99.976,134.3,121.52,26.3,10.259,55.318,3.026,81.613-7.247s52.214-23.638,79.965-25.732S909.7,410.1,921.577,438.562c15.917,38.172,43.3,75.244,78.79,88.245s24.365,91.486,60.3,102.731,121.44-40.658,131.437,0c10.253,41.691-9.758,84.132-24.606,124.012s-22.977,91.682,4.518,121.757c26.88,29.413,70.447,19.856,107.1,28.244,40.756,9.327,75.979,44.926,88.763,89.7A148.086,148.086,0,0,1,1372.814,1045.752Z" transform="translate(10022.413 8772.101)" fill="#dfdeff"/>
      <g id="Grupo_de_máscara_62" data-name="Grupo de máscara 62" transform="translate(10150.396 9082.214)" clip-path="url(#clip-path-2)">
        <g id="Grupo_4117" data-name="Grupo 4117" transform="translate(218.383 204.36)">
          <g id="Grupo_4115" data-name="Grupo 4115" transform="translate(373.321 33.703)">
            <g id="Grupo_3787" data-name="Grupo 3787">
              <g id="Grupo_3785" data-name="Grupo 3785">
                <path id="Caminho_4755" data-name="Caminho 4755" d="M158.047,290.688a31.331,31.331,0,0,1-39.577,18.1c-14.993-5.258-33.444-16.719-41.666-41.7-15-45.584,16.73-34.619-16.733-66.933s-.577-32.886-2.31-59.427,20.772-24.235,29.427-15.58,16.733,25.388,31.157,25.388,18.463,14.424,12.118,31.157,8.078,24.235,20.192,33.466C159.924,222.22,169.526,261.675,158.047,290.688Z" transform="translate(-0.992 -119.249)" fill="#528e94"/>
                <path id="Caminho_4756" data-name="Caminho 4756" d="M129.757,309.986a31.335,31.335,0,0,1-42.239-10.491c-8.453-13.458-15.745-33.918-6.613-58.583,16.66-45,34.656-16.656,28.608-62.78s20.034-26.086,35.214-47.927,31.348-6.015,32.725,6.147-2.728,30.283,8.556,39.268,5.457,22.785-9.929,31.921-8.78,23.989-5.053,38.758C173.875,257.594,156.808,294.442,129.757,309.986Z" transform="translate(83.716 -119.023)" fill="#528e94"/>
                <path id="Caminho_4757" data-name="Caminho 4757" d="M178.9,237.849c-12.551-10.116-30.5-14.9-37.594-29.38-4.289-8.758-3.448-19.16-6.488-28.425a35.764,35.764,0,0,0-23.57-22.788c-8.413-2.446-17.5-1.7-25.906-4.179C71.7,149.038,59.079,136.6,45.486,140.817a18.283,18.283,0,0,0-12.466,17.828c.36,7.226,4.994,13.439,7.561,20.211,3.83,10.1,2.978,21.323,1.366,32-.632,4.2-1.377,8.475-.646,12.654,1.564,8.949,9.621,15.51,18.158,18.613s17.772,3.555,26.7,5.255,18.129,5.031,23.659,12.235c5.339,6.951,6.364,16.3,10.7,23.916,6.723,11.8,20.783,17.919,34.351,18.544,16.388.76,40.836-.775,42.393-20.222C198.574,265.444,191.807,248.252,178.9,237.849Z" transform="translate(-33 -25.851)" fill="#5fa4ab"/>
                <path id="Caminho_4758" data-name="Caminho 4758" d="M147.358,293.6c8.049-13.965,10-32.446,23.2-41.692,7.99-5.592,18.4-6.375,27.077-10.814a35.761,35.761,0,0,0,18.859-26.817c1.116-8.691-1.039-17.559.118-26.244,1.873-14.108,12.206-28.5,5.93-41.277A18.27,18.27,0,0,0,203,137.2c-7.087,1.473-12.507,7.017-18.8,10.6-9.382,5.346-20.6,6.246-31.4,6.308-4.245.026-8.585-.048-12.6,1.322-8.6,2.93-13.832,11.908-15.577,20.824s-.756,18.107-1.05,27.184-2.163,18.69-8.42,25.271c-6.04,6.352-15.121,8.813-21.973,14.28-10.616,8.471-14.479,23.31-13,36.812,1.792,16.3,7.1,40.223,26.549,38.747C123.148,317.308,139.081,307.959,147.358,293.6Z" transform="translate(92.266 -34.114)" fill="#5fa4ab"/>
                <path id="Caminho_4759" data-name="Caminho 4759" d="M152.194,320.378c-1.741-18.876-11.067-37.813-5.864-55.79,3.151-10.872,11.093-18.851,15.481-29.109a48.862,48.862,0,0,0-.595-38.622c-4.226-9.042-11.2-15.982-15.386-25.046-6.812-14.723-6.962-35.6-19.564-43.39-6.907-4.275-16.179-2.328-21.411,4.5-4.854,6.33-5.956,15.368-8.923,23.151C91.511,167.675,82.981,176.332,74.3,183.9c-3.411,2.972-6.958,5.923-9.393,10.016-5.211,8.765-4.142,20.944-.29,30.636S74.683,242.307,79.8,251.146s9.283,19.283,8.111,29.9C86.782,291.283,80.9,299.931,78.6,309.9c-3.573,15.441,2.06,32.245,11.225,44.057,11.064,14.269,29.46,33.331,44.3,18.409C146.635,359.767,153.983,339.8,152.194,320.378Z" transform="translate(42.763 -100.78)" fill="#5fa4ab"/>
              </g>
            </g>
            <g id="Grupo_3789" data-name="Grupo 3789" transform="translate(75.369 248.986)">
              <path id="Caminho_4761" data-name="Caminho 4761" d="M227.735,184.143a6.1,6.1,0,0,0-5.952-7.454H59.631a6.1,6.1,0,0,0-5.952,7.454c4.37,19.241,20.1,69.54,66.074,76.04l.184.364h41.541l.187-.364C207.634,253.683,223.365,203.384,227.735,184.143Z" transform="translate(-53.525 -176.689)" fill="#ffbf67"/>
              <g id="Grupo_3788" data-name="Grupo 3788" transform="translate(4.001 11.156)">
                <line id="Linha_129" data-name="Linha 129" x2="165.787" fill="none" stroke="#051934" stroke-miterlimit="10" stroke-width="0.629"/>
                <line id="Linha_130" data-name="Linha 130" x2="153.477" transform="translate(6.155 18.463)" fill="none" stroke="#051934" stroke-miterlimit="10" stroke-width="0.629"/>
                <line id="Linha_131" data-name="Linha 131" x2="118.089" transform="translate(23.849 43.081)" fill="none" stroke="#051934" stroke-miterlimit="10" stroke-width="0.629"/>
                <line id="Linha_132" data-name="Linha 132" x2="63.468" transform="translate(51.159 67.699)" fill="none" stroke="#051934" stroke-miterlimit="10" stroke-width="0.629"/>
              </g>
            </g>
          </g>
          <g id="Grupo_4116" data-name="Grupo 4116">
            <g id="Grupo_4108" data-name="Grupo 4108" transform="translate(0 49.349)">
              <path id="Caminho_5094" data-name="Caminho 5094" d="M1103.851,434.009l-833.935-.336a8.354,8.354,0,0,1-8.353-8.353h0a8.354,8.354,0,0,1,8.353-8.357l833.935.336a8.354,8.354,0,0,1,8.353,8.353h0A8.354,8.354,0,0,1,1103.851,434.009Z" transform="translate(-261.563 3.521)" fill="#5454a3"/>
              <g id="Grupo_4075" data-name="Grupo 4075" transform="translate(1.757 116.106)">
                <g id="Grupo_4071" data-name="Grupo 4071" transform="translate(62.279 250.709)">
                  <path id="Caminho_5095" data-name="Caminho 5095" d="M303.417,403.374v41.469a12.82,12.82,0,0,1-25.64,0V403.374Z" transform="translate(-277.777 -403.374)" fill="#40405a"/>
                  <rect id="Retângulo_2207" data-name="Retângulo 2207" width="25.638" height="35.038" transform="translate(0 0)" fill="#2f2d44"/>
                  <path id="Caminho_5096" data-name="Caminho 5096" d="M412.825,403.374v41.469a12.82,12.82,0,0,1-25.64,0V403.374Z" transform="translate(44.913 -403.374)" fill="#40405a"/>
                  <rect id="Retângulo_2208" data-name="Retângulo 2208" width="25.637" height="35.038" transform="translate(432.099 0)" fill="#2f2d44"/>
                </g>
                <g id="Grupo_4074" data-name="Grupo 4074">
                  <rect id="Retângulo_2209" data-name="Retângulo 2209" width="436.662" height="157.572" transform="translate(71.847 113.496)" fill="#dc4f89"/>
                  <path id="Caminho_5097" data-name="Caminho 5097" d="M716.86,373.116V512.409H280.2V373.116c0-.521.008-1.043.036-1.556a33.221,33.221,0,0,1,33.187-31.666H683.637a33.22,33.22,0,0,1,33.092,30.28C716.82,371.146,716.86,372.125,716.86,373.116Z" transform="translate(-208.351 -339.894)" fill="#dc4f89"/>
                  <path id="Caminho_5098" data-name="Caminho 5098" d="M716.86,350.5V489.8H280.2V350.5c0-.521.008-1.043.036-1.556,9.83,4.013,21.745,12.749,27.646,31.8,11.058,35.691,8.543,98.021,8.543,98.021H681.35s-2.014-89.474,8.037-106.567a62.271,62.271,0,0,1,27.342-24.637C716.82,348.533,716.86,349.512,716.86,350.5Z" transform="translate(-208.351 -317.281)" fill="#b4205d"/>
                  <g id="Grupo_4072" data-name="Grupo 4072" transform="translate(0 39.336)">
                    <path id="Caminho_5099" data-name="Caminho 5099" d="M320.634,361.054V533.869a14.686,14.686,0,0,1-14.684,14.684H286.807a14.682,14.682,0,0,1-14.68-14.684V361.054Z" transform="translate(-232.162 -316.82)" fill="#c3507f"/>
                    <path id="Caminho_5100" data-name="Caminho 5100" d="M320.634,361.054v34.794a57.12,57.12,0,0,1-17.595,16.982c-9.49,5.841-21.279,8.673-30.912,10.043v-61.82Z" transform="translate(-232.162 -316.82)" fill="#c3507f"/>
                    <circle id="Elipse_483" data-name="Elipse 483" cx="44.235" cy="44.235" r="44.235" fill="#c3507f"/>
                    <path id="Caminho_5101" data-name="Caminho 5101" d="M302.767,373.692a16.913,16.913,0,1,1-.288-3.12A16.923,16.923,0,0,1,302.767,373.692Z" transform="translate(-241.609 -329.458)" fill="#c3507f"/>
                    <path id="Caminho_5102" data-name="Caminho 5102" d="M284.905,356.824c16.615,1.331,16.615,26.165,0,27.492-.45.036-.9.055-1.366.055s-.912-.02-1.367-.055c-16.615-1.327-16.615-26.161,0-27.492.45-.035.908-.055,1.367-.055S284.451,356.789,284.905,356.824Z" transform="translate(-239.3 -329.458)" fill="#c3507f"/>
                    <path id="Caminho_5103" data-name="Caminho 5103" d="M285.028,353.677c-2.686-2.33-12.314,2.01-17.844,14.577s-3.27,27.144,3.768,34.431c-1.757-8.542-4.02-17.591,3.772-29.656S288.8,356.943,285.028,353.677Z" transform="translate(-255.872 -340.355)" fill="#c3507f"/>
                  </g>
                  <g id="Grupo_4073" data-name="Grupo 4073" transform="translate(493.824 39.336)">
                    <path id="Caminho_5104" data-name="Caminho 5104" d="M387.045,361.054V533.869a14.686,14.686,0,0,0,14.684,14.684h19.143a14.682,14.682,0,0,0,14.68-14.684V361.054Z" transform="translate(-387.045 -316.82)" fill="#c3507f"/>
                    <path id="Caminho_5105" data-name="Caminho 5105" d="M387.045,361.054v34.794a57.118,57.118,0,0,0,17.595,16.982c9.49,5.841,21.275,8.673,30.912,10.043v-61.82Z" transform="translate(-387.045 -316.82)" fill="#c3507f"/>
                    <circle id="Elipse_484" data-name="Elipse 484" cx="44.235" cy="44.235" r="44.235" transform="translate(0.001)" fill="#c3507f"/>
                    <path id="Caminho_5106" data-name="Caminho 5106" d="M393.961,373.692a16.889,16.889,0,1,0,.284-3.12A17.3,17.3,0,0,0,393.961,373.692Z" transform="translate(-366.647 -329.458)" fill="#c3507f"/>
                    <path id="Caminho_5107" data-name="Caminho 5107" d="M407.205,356.824c-16.615,1.331-16.615,26.165,0,27.492.454.036.908.055,1.367.055s.916-.02,1.366-.055c16.619-1.327,16.619-26.161,0-27.492-.454-.035-.908-.055-1.37-.055S407.655,356.789,407.205,356.824Z" transform="translate(-364.338 -329.458)" fill="#c3507f"/>
                    <path id="Caminho_5108" data-name="Caminho 5108" d="M402.9,353.677c2.685-2.33,12.314,2.01,17.843,14.577s3.27,27.144-3.768,34.431c1.758-8.542,4.021-17.591-3.772-29.656S399.133,356.943,402.9,353.677Z" transform="translate(-343.588 -340.355)" fill="#c3507f"/>
                  </g>
                </g>
              </g>
              <g id="Grupo_4103" data-name="Grupo 4103" transform="translate(10.245 0)">
                <g id="Grupo_4081" data-name="Grupo 4081" transform="translate(291.622 58.025)">
                  <path id="Caminho_5116" data-name="Caminho 5116" d="M355.259,325.513c5.47,1.141,6.714,9.04,7.109,17.338.506,10.557,3.27,65.347,3.27,65.347L406.1,438.359l1.007,9.8s-60.071-19.605-64.091-29.407-6.284-67.1-4.273-77.409S345.638,323.506,355.259,325.513Z" transform="translate(-337.996 -325.188)" fill="#f7ab9d"/>
                </g>
                <g id="Grupo_4082" data-name="Grupo 4082" transform="translate(199.266)">
                  <path id="Caminho_5117" data-name="Caminho 5117" d="M429.328,341.279s5.028-9.214,1.675-17.761c-3.472-8.859-13.74-13.487-23.791-12.986s-15.079,7.456-29.155,10.055c-18.574,3.424-33.3,4.648-46.121,10.3-11.607,5.122-23,18.851-14.2,44.988,7.567,22.5,28.649,31.919,55.292,18.6S423.546,359.126,429.328,341.279Z" transform="translate(-314.611 -310.496)" fill="#40405a"/>
                  <path id="Caminho_5118" data-name="Caminho 5118" d="M415.309,315.22c-2.153-.881-6-3.539-17.528-1.426-9.131,1.674-13.906,10.474-33.511,12.231-16.319,1.465-45.482,4.214-46.244,29.407-.253,8.294,1.758,26.643,20.355,27.646s45.493-6.031,64.6-32.172S409.23,330.35,415.309,315.22Z" transform="translate(-304.596 -303.118)" fill="#2f2d44"/>
                </g>
                <g id="Grupo_4083" data-name="Grupo 4083" transform="translate(269.992 355.678)">
                  <path id="Caminho_5119" data-name="Caminho 5119" d="M403.186,464.144l-61.579-1.007-4.175-41.224-1.856-18.345,31.67-3.013-.115,18.005-.138,22.46s11.311,6.533,20.734,11.058C395.864,455.98,403.186,464.144,403.186,464.144Z" transform="translate(-323.505 -400.554)" fill="#f7ab9d"/>
                  <path id="Caminho_5120" data-name="Caminho 5120" d="M367.246,400.554l-.115,18.005a44.594,44.594,0,0,1-29.7,3.353l-1.856-18.345Z" transform="translate(-323.505 -400.554)" fill="#e95a5c"/>
                  <path id="Caminho_5121" data-name="Caminho 5121" d="M375.254,426.849s6.785-13.57,12.82-15.079,27.144,13.57,29.028,21.864H335.558a3.038,3.038,0,0,1-2.986-3.6h0a3.036,3.036,0,0,1,2.934-2.476Z" transform="translate(-332.52 -367.785)" fill="#2f2d44"/>
                </g>
                <g id="Grupo_4084" data-name="Grupo 4084" transform="translate(239.98 144.432)">
                  <path id="Caminho_5122" data-name="Caminho 5122" d="M368.639,350.079s27.1,96.607,31.627,119.225-.336,95.292-.336,95.292-18.1,10.3-34.684,2.765c-2.263-21.615-6.829-98.056-6.829-98.056s-31.465-79.214-33.353-88.641,15.3-33.6,15.3-33.6Z" transform="translate(-324.92 -347.066)" fill="#2f2d44"/>
                </g>
                <g id="Grupo_4087" data-name="Grupo 4087" transform="translate(181.258 131.987)">
                  <g id="Grupo_4085" data-name="Grupo 4085" transform="translate(18.282 223.691)">
                    <path id="Caminho_5123" data-name="Caminho 5123" d="M375.98,464.144l-61.3-1.007,7.03-40.592.111-.632,3.171-18.345,32.5-3.013-5.055,18.005-2.393,8.523L346.13,441.02s9.522,6.533,17.705,11.058C370.9,455.98,375.98,464.144,375.98,464.144Z" transform="translate(-314.681 -400.554)" fill="#f7ab9d"/>
                    <path id="Caminho_5124" data-name="Caminho 5124" d="M352.243,400.554l-5.055,18.005-2.393,8.523c-4.724.889-10.565,1.43-15.9.363a39.346,39.346,0,0,1-12.429-4.9l.111-.632,3.171-18.345Z" transform="translate(-309.431 -400.554)" fill="#e95a5c"/>
                  </g>
                  <g id="Grupo_4086" data-name="Grupo 4086" transform="translate(18.387)">
                    <path id="Caminho_5125" data-name="Caminho 5125" d="M379.911,357.489s-15.458,30.537-15.458,36.568,12.314,79.8,12.314,97.144-14.577,75.4-20.608,88.471c-12.441,4.147-29.028,1.884-33.554-6.41a868.3,868.3,0,0,1,10.932-87.089s-21.864-84.2-18.471-103.048,20.359-39.21,20.359-39.21Z" transform="translate(-314.707 -343.915)" fill="#40405a"/>
                  </g>
                  <path id="Caminho_5126" data-name="Caminho 5126" d="M353.93,426.849s10.509-13.57,16.955-15.079,23.42,13.57,23.029,21.864H312.371c-1.9,0-2.863-1.726-2-3.6h0a4.3,4.3,0,0,1,3.614-2.476Z" transform="translate(-310.052 -144.094)" fill="#2f2d44"/>
                </g>
                <g id="Grupo_4088" data-name="Grupo 4088" transform="translate(209.426 33.453)">
                  <path id="Caminho_5127" data-name="Caminho 5127" d="M415.71,381.813c-1.544,5.49-3.4,9.641-14.83,13.069-2.666,19.048-6.031,46.749-6.031,46.749L317.184,427.3l23.878-30.912s-9.076-61.643,6.28-76.405c1.864-1.789,12.18-1.1,18.44,1.1,1.639.577,2.847,1.007,3.31,1.149,3.945,3.436,11.84,21.864,21.283,22.524s9.96-7.757,10.3-12.563c.549.395,1.141.829,1.761,1.28,5.8,4.23,14.2,10.391,14.2,10.391l-7.468,19.854S417.254,376.316,415.71,381.813Z" transform="translate(-317.184 -318.966)" fill="#ffbf67"/>
                  <path id="Caminho_5128" data-name="Caminho 5128" d="M331.064,325.528a80.925,80.925,0,0,1,1.793,13.187c.17,6.05-2.923,11.923.008,18.124s7.559,8.977,24.024,11.647c-9.881,1.216-22.263,2.046-28.637-5.608s.047-19.127.8-23.617S331.064,325.528,331.064,325.528Z" transform="translate(-292.782 -299.612)" fill="#7574b5"/>
                  <path id="Caminho_5129" data-name="Caminho 5129" d="M322.139,391.491l-.071.028C322.048,391.451,322.139,391.491,322.139,391.491Z" transform="translate(-302.787 -105.094)" fill="#40405a"/>
                </g>
                <g id="Grupo_4091" data-name="Grupo 4091" transform="translate(0 125.791)">
                  <path id="Caminho_5130" data-name="Caminho 5130" d="M303.764,609.8s19.625,1.414,24.155-2.157c6.836-4.581,4.084-20.3,2.674-47.863-1.26-24.633-15.264-158.751-13.037-173.636,1.742-11.667,6.288-12.638,20.7-19,16.971-7.5,51.445-13.878,73.795-15.794s42.942,9.332,62.887,19.155c3.025,1.489,6.13,3.231,9.218,5.118A151.853,151.853,0,0,1,533.972,425.4L635.136,588.837h10.217S545.05,412.005,521.863,391.958c-27.772-24.008-68.633-46.034-88.427-48.59s-43.416-.32-71.188,6.7c-24.581,6.22-40.545,13.092-47.887,18.839s-7.342,18.515-6.7,29.688S321.15,582.553,321.15,589.255s1.449,9.356-7.808,9.676c-.663.024-1.3.04-1.908.051a8.256,8.256,0,0,0-7.67,10.817Z" transform="translate(-148.556 -342.346)" fill="#2f2d44"/>
                  <g id="Grupo_4090" data-name="Grupo 4090" transform="translate(0 187.144)">
                    <path id="Caminho_5131" data-name="Caminho 5131" d="M276.195,395.425c-12.137,5.028-12.038,18.724-12.038,32.1v38.368a23.156,23.156,0,0,0,23.155,23.156h136c8.025,0,14-30.936,3.42-47.065C405.625,409.817,323.007,376.034,276.195,395.425Z" transform="translate(-264.157 -389.731)" fill="#40405a"/>
                    <g id="Grupo_4089" data-name="Grupo 4089" transform="translate(10.556 47.817)">
                      <circle id="Elipse_485" data-name="Elipse 485" cx="32.317" cy="32.317" r="32.317" fill="#2f2d44"/>
                      <circle id="Elipse_486" data-name="Elipse 486" cx="19.153" cy="19.153" r="19.153" transform="translate(13.164 13.164)" fill="#40405a"/>
                      <path id="Caminho_5132" data-name="Caminho 5132" d="M287.9,415.53a7.379,7.379,0,1,1-7.378-7.377A7.379,7.379,0,0,1,287.9,415.53Z" transform="translate(-248.207 -383.215)" fill="#fde6d1"/>
                    </g>
                  </g>
                  <path id="Caminho_5133" data-name="Caminho 5133" d="M389.618,393.462h4.427a7.186,7.186,0,0,1,6.5,4.131l39.96,66.1s41.22,7.539,44.739,12.065a26.633,26.633,0,0,1,4.522,10.557H380.187s3.013-8.045,8.547-11.058,28.147-9.554,28.147-9.554l-33.922-62.393A7.175,7.175,0,0,1,389.618,393.462Z" transform="translate(78.064 -191.584)" fill="#2f2d44"/>
                </g>
                <g id="Grupo_4093" data-name="Grupo 4093" transform="translate(356.32 169.993)">
                  <g id="Grupo_4092" data-name="Grupo 4092">
                    <path id="Caminho_5134" data-name="Caminho 5134" d="M359.732,358.623s-.881-3.519.881-4.653,4.147,2.516,5.277,3.9,4.273,4.269,4.648,5.276-.5,4.147-2.512,3.9S361.115,363.647,359.732,358.623Z" transform="translate(-339.235 -352.893)" fill="#e95a5c"/>
                    <path id="Caminho_5135" data-name="Caminho 5135" d="M383.675,371.456c-.885,1.888-6.54,5.908-8.55,5.529a7.274,7.274,0,0,1-3.262-1.509s-2.642-.122-3.519-.75a4.046,4.046,0,0,1-1.26-1.888s-2.891.126-3.519-.881a21.314,21.314,0,0,1-1.256-2.512,47.014,47.014,0,0,1-4.775-2.891c-1.26-1-3.772-5.9-3.017-8.922,4.522,3.017,8.294,5.154,8.294,5.154.375.126,3.266.249,4.021-.754a13.049,13.049,0,0,0,1.173-2.52,3.785,3.785,0,0,0-.928-4.072l-1.058-1.015a9.7,9.7,0,0,1,4.834-.814c2.263.375,2.642,3.645,2.642,3.645a6.348,6.348,0,0,1,1.5.494,3.178,3.178,0,0,1,1.386,1.137,12,12,0,0,1,1.129,3.2,3.423,3.423,0,0,1,1.347,0,1.89,1.89,0,0,1,1.291.94,6.729,6.729,0,0,1,.758,2.891,9.654,9.654,0,0,1,1.37.324,2.912,2.912,0,0,1,1.769,1.185C384.552,368.565,384.552,369.568,383.675,371.456Z" transform="translate(-354.378 -353.538)" fill="#f7ab9d"/>
                  </g>
                  <path id="Caminho_5136" data-name="Caminho 5136" d="M363.879,361.016a6.244,6.244,0,0,1-6.284,3.266c3.329-.632,4.522-2.832,5.529-5.158A11.465,11.465,0,0,0,364,354.48a6.347,6.347,0,0,1,1.5.494A11.72,11.72,0,0,1,363.879,361.016Z" transform="translate(-344.889 -350.76)" fill="#f09087"/>
                  <path id="Caminho_5137" data-name="Caminho 5137" d="M366.228,355.757a10.3,10.3,0,0,1-.9,3.768c-1.07,2.073-3.207,4.526-6.663,4.526,4.21-1.825,6.283-7.1,6.22-8.3A3.423,3.423,0,0,1,366.228,355.757Z" transform="translate(-341.745 -347.199)" fill="#f09087"/>
                  <path id="Caminho_5138" data-name="Caminho 5138" d="M365.035,362.161c-1.99,2.058-5.446,1.931-5.446,1.931a8.36,8.36,0,0,0,4.356-2.765,9.449,9.449,0,0,0,1.6-4.652,9.658,9.658,0,0,1,1.37.324A6.741,6.741,0,0,1,365.035,362.161Z" transform="translate(-339.008 -344.286)" fill="#f09087"/>
                </g>
                <g id="Grupo_4094" data-name="Grupo 4094" transform="translate(173.39 127.667)">
                  <path id="Caminho_5139" data-name="Caminho 5139" d="M332.914,354.179c-3.27-.126-6.035-3.013-6.035-3.013s1.509,16.086,1.133,16.84-.628,2.259-3.27,1a1.468,1.468,0,0,1-1.323,1.019,5.088,5.088,0,0,1-2.2-.391s-.379,1.382-1.5,1.635-3.021-1.761-3.021-1.761a3.2,3.2,0,0,1-1.284.853,1.4,1.4,0,0,1-.723.028c-1.007-.253-5.4-4.273-6.283-6.41s.166-9.818.332-12.314c.34-5.028,3.562-6.157,3.562-6.157,2.259-2.01,13.823-3.144,15.837-2.516s5.15,6.789,5.15,6.789,6.284-.506,7.666.877S336.177,354.306,332.914,354.179Z" transform="translate(-308.06 -342.821)" fill="#f7ab9d"/>
                  <path id="Caminho_5140" data-name="Caminho 5140" d="M315.151,359.577a1.468,1.468,0,0,1-1.323,1.019,27.742,27.742,0,0,1-2.208-5.478c-.857-3.432.343-9.1.343-9.1Z" transform="translate(-298.468 -333.389)" fill="#f09087"/>
                  <path id="Caminho_5141" data-name="Caminho 5141" d="M315.037,357.306s-.379,1.382-1.5,1.635a13.937,13.937,0,0,1-2.891-5.4c-1.007-4.4-.13-6.536-.13-6.536S312.024,353.787,315.037,357.306Z" transform="translate(-301.873 -330.49)" fill="#f09087"/>
                  <path id="Caminho_5142" data-name="Caminho 5142" d="M313.782,357.649a3.2,3.2,0,0,1-1.284.853c-1.426-1.521-3.215-3.657-3.361-5a46.446,46.446,0,0,1,.122-6.659s.881,4.147,1.382,5.656A33.073,33.073,0,0,0,313.782,357.649Z" transform="translate(-305.144 -330.959)" fill="#f09087"/>
                </g>
                <g id="Grupo_4095" data-name="Grupo 4095" transform="translate(174.467 33.851)">
                  <path id="Caminho_5143" data-name="Caminho 5143" d="M376.3,343.144c-4.526,6.7-44.735,18.262-44.735,18.262l-.581,3.681c-1.931,12.2-8.017,50.6-8.3,51.449-.336,1.007-6.366,4.352-11.73,1.5-3.349-5.7-3.519-60.485-.336-66.181s58.815-34.853,66.188-32.677C382,320.857,380.827,336.445,376.3,343.144Z" transform="translate(-308.332 -319.067)" fill="#f7ab9d"/>
                  <path id="Caminho_5144" data-name="Caminho 5144" d="M320.255,329.787l-.581,3.681-7.508-1.1Z" transform="translate(-297.022 -287.448)" fill="#f09087"/>
                </g>
                <g id="Grupo_4102" data-name="Grupo 4102" transform="translate(258.023 8.172)">
                  <path id="Caminho_5145" data-name="Caminho 5145" d="M344.864,319.371s5.691-5.205,6.833-.486-7.318,8.626-10.249,5.7C340.634,323.767,344.864,319.371,344.864,319.371Z" transform="translate(-294.525 -299.758)" fill="#f09087"/>
                  <g id="Grupo_4096" data-name="Grupo 4096" transform="translate(4.099 9.878)">
                    <path id="Caminho_5146" data-name="Caminho 5146" d="M358.6,339.363a7.874,7.874,0,0,0,3.685,7.374c-.837,6.031-3,10.81-9.885,10.723-12.986-.17-17.259-20.359-21.868-21.785,9.589-2.982,14.155-7.563,17.172-12.689a30.055,30.055,0,0,0,3.353-7.919l15.083,10.723-3.685,4.526a16.783,16.783,0,0,0-3.752,8.049C358.651,338.691,358.615,339.023,358.6,339.363Z" transform="translate(-330.527 -315.066)" fill="#f09087"/>
                    <path id="Caminho_5147" data-name="Caminho 5147" d="M353.331,325.789l-3.685,4.526a16.783,16.783,0,0,0-3.752,8.049c-3.013-1.291-7.555-3.511-9.487-5.873-1.37-1.671-1.635-5.656-1.513-9.506a30.056,30.056,0,0,0,3.353-7.919Z" transform="translate(-317.723 -315.066)" fill="#e95a5c"/>
                  </g>
                  <path id="Caminho_5148" data-name="Caminho 5148" d="M337.554,334.883c1.817,2.235,10.857,8.5,12.3,8.242S361.1,332,364.635,324.156c-.786-3.8-2.749-7.982-2.618-10.6-4.577,2.093-7.717,2.484-13.476,2.354a54.613,54.613,0,0,0-10.857.916S334.153,330.7,337.554,334.883Z" transform="translate(-310.062 -309.63)" fill="#f7ab9d"/>
                  <path id="Caminho_5149" data-name="Caminho 5149" d="M342.216,321.013s.387-7.038-2.314-8.164c-2.958-1.232-5.28,1.761-5.28,4.522,0,1.678.505,7.164,2.516,8.3s4.9-.253,4.9-.253Z" transform="translate(-314.353 -312.565)" fill="#f7ab9d"/>
                  <g id="Grupo_4097" data-name="Grupo 4097" transform="translate(21.611 1.529)">
                    <path id="Caminho_5150" data-name="Caminho 5150" d="M335.38,314.307a2.746,2.746,0,0,1,2.682-1.3c1.631.375.964,3.811,1.212,5.15a6.513,6.513,0,0,0,.924,2.307c0-.126-1.888-.462-2.263.667s1.927,1.971,1.927,1.971a3.683,3.683,0,0,1-3.057.083c-1.382-.754-1.844-4.984-1.844-4.984s1.212,3.728,1.927,3.562c.126-1.592.711-2.224,1.509-2.263-.588-1.552.028-4.771-.588-5.237C336.845,313.426,335.38,314.307,335.38,314.307Z" transform="translate(-334.961 -312.952)" fill="#e95a5c"/>
                  </g>
                  <g id="Grupo_4098" data-name="Grupo 4098" transform="translate(37.335 12.979)">
                    <path id="Caminho_5151" data-name="Caminho 5151" d="M344.17,315.851a6.44,6.44,0,0,0-4.273,4.084,5.616,5.616,0,0,0,.442,4.021,9.446,9.446,0,0,1,.691-3.645A27.862,27.862,0,0,1,344.17,315.851Z" transform="translate(-336.731 -315.851)" fill="#e95a5c"/>
                    <path id="Caminho_5152" data-name="Caminho 5152" d="M341.315,319.2s-1.592-2.283-2.22-1.844S339.889,319.161,341.315,319.2Z" transform="translate(-338.942 -311.578)" fill="#f09087"/>
                  </g>
                  <g id="Grupo_4099" data-name="Grupo 4099" transform="translate(30.721 18.058)">
                    <path id="Caminho_5153" data-name="Caminho 5153" d="M342.167,326.212a6.925,6.925,0,0,1-1.434-.525,6.336,6.336,0,0,1-3.278-4.163,3.492,3.492,0,0,1,1.264-4.052,2.426,2.426,0,0,1,.466-.229,1.156,1.156,0,0,1,1.363.257c1.987,2.543,3.246,3.578,4.183,4.826.107.134.205.28.3.423C346.009,324.214,345.061,326.939,342.167,326.212Z" transform="translate(-337.268 -317.137)" fill="#40405a"/>
                    <path id="Caminho_5154" data-name="Caminho 5154" d="M340.733,325.608a6.336,6.336,0,0,1-3.278-4.163,3.492,3.492,0,0,1,1.264-4.052,2.424,2.424,0,0,1,.466-.229C340.314,318.91,342.1,322.476,340.733,325.608Z" transform="translate(-337.268 -317.057)" fill="#e95a5c"/>
                    <path id="Caminho_5155" data-name="Caminho 5155" d="M343.646,322.327a2.96,2.96,0,0,1-2.287-.008c-2.492-.659-3.432-3.4-3.724-4.846.683-.434,1.437-.47,1.828.028C341.45,320.044,342.71,321.079,343.646,322.327Z" transform="translate(-336.184 -317.137)" fill="#fff"/>
                  </g>
                  <g id="Grupo_4100" data-name="Grupo 4100" transform="translate(35.842 7.218)">
                    <path id="Caminho_5156" data-name="Caminho 5156" d="M340.763,315.554c-1.821-.8-3.073,1.848-1.446,2.946C341.458,319.946,343.508,316.767,340.763,315.554Z" transform="translate(-338.564 -311.405)" fill="#40405a"/>
                    <path id="Caminho_5157" data-name="Caminho 5157" d="M338.654,315.212a9.411,9.411,0,0,1,2.926.431c1.292.423,3,1.979,4.9,1.031-1.781-.9-3.831-2.184-5.15-2.275A5.03,5.03,0,0,0,338.654,315.212Z" transform="translate(-338.299 -314.392)" fill="#40405a"/>
                  </g>
                  <g id="Grupo_4101" data-name="Grupo 4101" transform="translate(45.255 13.608)">
                    <path id="Caminho_5158" data-name="Caminho 5158" d="M342.766,316.866c-1.5-.663-2.539,1.532-1.2,2.437C343.342,320.5,345.037,317.869,342.766,316.866Z" transform="translate(-340.948 -313.849)" fill="#40405a"/>
                    <path id="Caminho_5159" data-name="Caminho 5159" d="M341.24,316.637a14.658,14.658,0,0,1,2.682.671,4.275,4.275,0,0,1,1.927,1.923s.675-2.571-1.343-3.1A4.49,4.49,0,0,0,341.24,316.637Z" transform="translate(-340.086 -316.01)" fill="#40405a"/>
                  </g>
                  <path id="Caminho_5160" data-name="Caminho 5160" d="M366.147,331.891a25.986,25.986,0,0,1-1.809,8.756c-1.133,2.634-3.9,5.276-10.683,4.771s-13.069-9.546-16.086-14.952a76.374,76.374,0,0,0-8.08-10.964c1.639.577,4.309,1.6,4.771,1.75,3.946,3.436,10.561,21.173,20.024,21.362,8.377.17,8.547-7.374,9.767-12.172C364.6,330.841,365.527,331.441,366.147,331.891Z" transform="translate(-329.489 -292.104)" fill="#5454a3"/>
                </g>
              </g>
            </g>
          </g>
        </g>
      </g>
    </g>
  </g>
</svg>
